<svg id="Logo" xmlns="http://www.w3.org/2000/svg" xmlns:xlink="http://www.w3.org/1999/xlink" viewBox="0 0 532.44 658.86"><defs><style>.cls-1{fill:url(#linear-gradient);}.cls-2{fill:#07889b;}.cls-3{fill:#e69f2c;}</style><linearGradient id="linear-gradient" x1="1091.7" y1="645.13" x2="1096.19" y2="312.37" gradientUnits="userSpaceOnUse"><stop offset="0" stop-color="#500013"/><stop offset="0.31" stop-color="#3b273a"/><stop offset="1" stop-color="#07889b"/><stop offset="1" stop-color="#07889b"/></linearGradient></defs><title>NL2CQ Logo</title><g id="_2" data-name="2"><path class="cls-1" d="M1214,768.9H823.9q2.59-44.07,20.28-78.9a252.13,252.13,0,0,1,44.88-62.59,380.73,380.73,0,0,1,60.85-50.25q33.66-22.48,68.19-41.87,44-24.67,86.31-48t75.09-48.93q32.79-25.56,52.65-56.86T1252,309.62q0-60.83-36.68-95.65t-96.24-34.82q-39.71,0-70.35,14.1A161.52,161.52,0,0,0,996.1,231.6,181.37,181.37,0,0,0,961,290c-5,0-35.66-.08-35.66-.08s.29-2.83,4.73-13.36q14.67-39.21,41.43-67a192.75,192.75,0,0,1,63.87-43.64q37.1-15.87,82.86-15.87,35.38,0,66,10.58a152.49,152.49,0,0,1,53.08,30.85,140.47,140.47,0,0,1,35,49.37q12.5,29.09,12.52,67,0,44.09-16.4,76.69a211.25,211.25,0,0,1-43.16,58.18A330.32,330.32,0,0,1,1164,488.57q-34.53,20.29-69.91,39.67-37.12,20.29-74.23,41.43A558.8,558.8,0,0,0,950.79,616a312.51,312.51,0,0,0-55.24,55.54,185,185,0,0,0-32.8,68.32h356.47l46.12.11s-25-37-27-40c56,38,118,56,118,56s-68,11-118,53c4-6,27-40,27-40Z" transform="translate(-823.9 -150.06)"/></g><g id="nl"><path class="cls-2" d="M961,289.92l42.68,111.76h.44l22.44-111.76h31.68L1025,447H990.46L947.34,336.78h-.44L924.46,447H892.34l33-157.08Z" transform="translate(-823.9 -150.06)"/><path class="cls-2" d="M1122.9,289.92l-26.84,128H1172l-6.16,29H1055.36l32.78-157.08Z" transform="translate(-823.9 -150.06)"/></g><g id="cq"><path class="cls-3" d="M1030.51,614.59q-7.81-7.37-20.35-7.37-13.2,0-23,6a51.05,51.05,0,0,0-16.06,15.62,71.77,71.77,0,0,0-9.35,21.34,90.52,90.52,0,0,0-3.08,23,55.33,55.33,0,0,0,2.09,15.4,38.47,38.47,0,0,0,6.38,12.87,30.58,30.58,0,0,0,11,8.91,36.33,36.33,0,0,0,16.17,3.3,35.22,35.22,0,0,0,13.31-2.53,38,38,0,0,0,11.11-6.82,39.93,39.93,0,0,0,8.14-10,36.53,36.53,0,0,0,4.4-11.88h34.54a124.24,124.24,0,0,1-12.43,27.94A73.33,73.33,0,0,1,1037.33,729a56.87,56.87,0,0,1-19.8,10.34,83.9,83.9,0,0,1-23.65,3.19q-33.44,0-51.59-17.82t-18.15-51.48a110.19,110.19,0,0,1,5.94-36.3,93.53,93.53,0,0,1,17-30.25,81.52,81.52,0,0,1,27.06-20.79q15.95-7.7,35.75-7.7a82.47,82.47,0,0,1,25.3,3.74A56.65,56.65,0,0,1,1055.37,593a49.41,49.41,0,0,1,13.09,18.26q4.62,10.89,4.4,25.19h-34.54Q1038.32,622,1030.51,614.59Z" transform="translate(-823.9 -150.06)"/><path class="cls-3" d="M1192.1,735.26a68.26,68.26,0,0,1-16.5,5.5,95.37,95.37,0,0,1-18.7,1.76q-33.44,0-51.59-17.82t-18.15-51.48a110.19,110.19,0,0,1,5.94-36.3,93.53,93.53,0,0,1,17-30.25,81.52,81.52,0,0,1,27.06-20.79q15.95-7.7,35.75-7.7a91.43,91.43,0,0,1,28.82,4.29,56.07,56.07,0,0,1,36,34q4.95,12.54,4.95,29a119.35,119.35,0,0,1-7.59,42.68,86.78,86.78,0,0,1-22.77,33.88l16.72,18.7-18.48,15.4Zm-1.1-37.4a65.64,65.64,0,0,0,12.87-23.32,87,87,0,0,0,4.29-26.62,63.88,63.88,0,0,0-1.87-15.73,35.44,35.44,0,0,0-6-12.87,30.38,30.38,0,0,0-10.78-8.8q-6.6-3.3-16.28-3.3-13.2,0-23,6a51.05,51.05,0,0,0-16.06,15.62,71.77,71.77,0,0,0-9.35,21.34,90.52,90.52,0,0,0-3.08,23,55.33,55.33,0,0,0,2.09,15.4,38.47,38.47,0,0,0,6.38,12.87,30.58,30.58,0,0,0,11,8.91,36.33,36.33,0,0,0,16.17,3.3,40.5,40.5,0,0,0,13.64-2.42l-12.32-13.86,18.48-15.18Z" transform="translate(-823.9 -150.06)"/></g></svg>